<svg width="60" height="66" viewBox="0 0 60 66" fill="none" xmlns="http://www.w3.org/2000/svg">
<path d="M54.4999 15.236C55.5691 15.8419 56.457 16.7208 57.0722 17.7822C57.6873 18.8436 58.0076 20.0492 57.9999 21.2749V43.8557C57.9999 46.3636 56.6216 48.6763 54.3972 49.8946L48.4124 53.6671L43.0625 57.0393L33.3973 63.1318C32.3561 63.7014 31.1876 64 29.9999 64C28.8122 64 27.6437 63.7014 26.6026 63.1318L16.9373 57.0393L11.8256 53.8172L5.60266 49.8946C4.51429 49.3019 3.60571 48.4288 2.97194 47.3664C2.33818 46.3041 2.00249 45.0915 2 43.8557V21.2718C2 18.7638 3.37822 16.4543 5.60266 15.236L26.6026 2.89774C27.6745 2.30885 28.8786 2 30.1026 2C31.3266 2 32.5307 2.30885 33.6026 2.89774L54.6025 15.236H54.4999Z" fill="#970066"/>
<path d="M11.392 33.087H6.0503L30.1026 11.8266L54.1257 33.087H48.784" fill="#970066"/>
<path d="M48.4124 53.6671C48.6556 53.0517 48.784 52.3908 48.784 51.7166L48.784 33.087H54.1257L30.1026 11.8266L6.0503 33.087H11.392V51.7166C11.392 52.4459 11.5422 53.1598 11.8256 53.8172M48.4124 53.6671L54.3972 49.8946C56.6216 48.6763 57.9999 46.3636 57.9999 43.8557V21.2749C58.0076 20.0492 57.6873 18.8436 57.0722 17.7822C56.457 16.7208 55.5691 15.8419 54.4999 15.236H54.6025L33.6026 2.89774C32.5307 2.30885 31.3266 2 30.1026 2C28.8786 2 27.6745 2.30885 26.6026 2.89774L5.60266 15.236C3.37822 16.4543 2 18.7638 2 21.2718V43.8557C2.00249 45.0915 2.33818 46.3041 2.97194 47.3664C3.60571 48.4288 4.51429 49.3019 5.60266 49.8946L11.8256 53.8172M48.4124 53.6671L43.0625 57.0393M43.0625 57.0393L33.3973 63.1318C32.3561 63.7014 31.1876 64 29.9999 64C28.8122 64 27.6437 63.7014 26.6026 63.1318L16.9373 57.0393M43.0625 57.0393H38.1005M11.8256 53.8172L16.9373 57.0393M16.9373 57.0393H22.0754M38.1005 57.0393V41.0711C38.1005 39.6594 37.5378 38.3056 36.536 37.3074C35.5342 36.3092 34.1755 35.7484 32.7588 35.7484H27.4171C26.0004 35.7484 24.6417 36.3092 23.64 37.3074C22.6382 38.3056 22.0754 39.6594 22.0754 41.0711V57.0393M38.1005 57.0393H22.0754" stroke="white" stroke-width="2.5" stroke-linecap="round" stroke-linejoin="round"/>
</svg>
