<svg width="277" height="66" viewBox="0 0 277 66" fill="none" xmlns="http://www.w3.org/2000/svg">
<path d="M114 13.424L116.16 14.48C114.016 18.672 111.792 24.064 109.488 30.656C110.96 30.656 111.968 30.72 112.512 30.848L112.32 33.584C111.648 33.808 110.336 33.92 108.384 33.92C107.712 35.776 107.312 37.28 107.184 38.432C107.056 39.584 106.944 40.704 106.848 41.792C106.784 42.88 106.736 43.616 106.704 44H104.016C103.856 43.456 103.776 42.896 103.776 42.32C103.776 40.336 104.304 37.536 105.36 33.92C103.44 33.92 100.528 34.144 96.624 34.592C96.464 35.104 96.064 36.064 95.424 37.472C94.784 38.848 94.144 40.048 93.504 41.072C92.896 42.096 92.064 43.216 91.008 44.432C89.952 45.648 88.848 46.672 87.696 47.504C84.4 49.872 81.2 51.056 78.096 51.056C76.816 51.056 75.76 50.656 74.928 49.856C74.096 49.056 73.68 48.048 73.68 46.832C73.68 43.76 75.44 40.976 78.96 38.48C82.512 35.952 87.424 33.936 93.696 32.432C96.064 25.52 99.392 20.592 103.68 17.648C99.04 17.712 95.216 18.496 92.208 20C89.2 21.504 87.696 23.424 87.696 25.76C87.696 26.496 87.808 27.136 88.032 27.68C88.256 28.192 88.784 29.008 89.616 30.128L87.984 31.664C86.576 30.768 85.504 29.68 84.768 28.4C84.032 27.12 83.664 25.888 83.664 24.704C83.664 22.72 84.72 20.896 86.832 19.232C88.944 17.536 91.568 16.24 94.704 15.344C97.84 14.416 101.024 13.952 104.256 13.952C105.888 13.952 107.008 14.08 107.616 14.336C108.256 14.56 108.576 15.008 108.576 15.68C108.576 16.32 108.112 16.928 107.184 17.504C103.184 20 99.968 24.736 97.536 31.712C99.424 31.392 102.352 31.04 106.32 30.656C107.856 26.176 109.088 22.864 110.016 20.72C110.976 18.544 112.304 16.112 114 13.424ZM81.936 47.744C83.12 47.744 84.496 47.216 86.064 46.16C87.664 45.136 88.992 43.792 90.048 42.128C91.136 40.432 92.064 38.112 92.832 35.168C88.576 35.872 85.136 37.12 82.512 38.912C79.92 40.672 78.624 42.672 78.624 44.912C78.624 45.808 78.88 46.496 79.392 46.976C79.936 47.488 80.784 47.744 81.936 47.744ZM127.929 38.336L129.033 39.2C128.041 40.576 126.681 41.728 124.953 42.656C123.225 43.552 121.545 44 119.913 44C118.281 44 116.969 43.52 115.977 42.56C114.985 41.6 114.489 40.336 114.489 38.768C114.489 35.824 116.041 32.928 119.145 30.08C122.281 27.232 125.449 25.808 128.649 25.808C130.761 25.808 131.817 26.64 131.817 28.304C131.817 30.032 130.697 31.776 128.457 33.536C126.249 35.296 123.129 36.896 119.097 38.336C119.385 39.072 119.833 39.648 120.441 40.064C121.049 40.48 121.673 40.688 122.313 40.688C123.689 40.688 125.561 39.904 127.929 38.336ZM118.857 36.896C121.449 36 123.673 34.88 125.529 33.536C127.385 32.192 128.313 30.96 128.313 29.84C128.313 29.424 128.153 29.056 127.833 28.736C127.513 28.416 127.145 28.256 126.729 28.256C125.225 28.256 123.593 29.2 121.833 31.088C120.105 32.944 119.113 34.88 118.857 36.896ZM136.659 39.392L137.667 40.208C136.579 41.904 135.635 43.136 134.835 43.904C134.067 44.64 133.203 45.008 132.243 45.008C131.283 45.008 130.499 44.624 129.891 43.856C129.283 43.088 128.979 42.128 128.979 40.976C128.979 38.736 130.451 33.92 133.395 26.528C136.339 19.104 139.363 12.576 142.467 6.944L144.579 8.096C141.443 14.176 138.611 20.224 136.083 26.24C133.555 32.224 132.291 36.528 132.291 39.152C132.291 40.656 132.851 41.408 133.971 41.408C134.867 41.408 135.763 40.736 136.659 39.392ZM146.09 39.392L147.098 40.208C146.01 41.904 145.066 43.136 144.266 43.904C143.498 44.64 142.634 45.008 141.674 45.008C140.714 45.008 139.93 44.624 139.322 43.856C138.714 43.088 138.41 42.128 138.41 40.976C138.41 38.736 139.882 33.92 142.826 26.528C145.77 19.104 148.794 12.576 151.898 6.944L154.01 8.096C150.874 14.176 148.042 20.224 145.514 26.24C142.986 32.224 141.722 36.528 141.722 39.152C141.722 40.656 142.282 41.408 143.402 41.408C144.298 41.408 145.194 40.736 146.09 39.392ZM161.713 29.744C162.545 31.12 162.961 32.64 162.961 34.304C162.961 36.896 162.065 39.216 160.273 41.264C158.481 43.28 156.369 44.288 153.937 44.288C152.081 44.288 150.625 43.76 149.569 42.704C148.545 41.616 148.033 40.128 148.033 38.24C148.033 35.2 149.217 32.48 151.585 30.08C153.953 27.648 156.609 26.432 159.553 26.432C160.097 26.432 160.481 26.448 160.705 26.48L160.849 28.064C158.289 28.064 156.161 28.8 154.465 30.272C152.769 31.744 151.921 33.632 151.921 35.936C151.921 37.312 152.257 38.432 152.929 39.296C153.601 40.128 154.577 40.544 155.857 40.544C157.169 40.544 158.209 39.968 158.977 38.816C159.745 37.664 160.129 36.32 160.129 34.784C160.129 33.216 159.825 31.792 159.217 30.512L161.713 29.744ZM215.306 13.424L217.466 14.48C215.322 18.672 213.098 24.064 210.794 30.656C212.266 30.656 213.274 30.72 213.818 30.848L213.626 33.584C212.954 33.808 211.642 33.92 209.69 33.92C209.018 35.776 208.618 37.28 208.49 38.432C208.362 39.584 208.25 40.704 208.154 41.792C208.09 42.88 208.042 43.616 208.01 44H205.322C205.162 43.456 205.082 42.896 205.082 42.32C205.082 40.336 205.61 37.536 206.666 33.92C204.746 33.92 201.834 34.144 197.93 34.592C197.77 35.104 197.37 36.064 196.73 37.472C196.09 38.848 195.45 40.048 194.81 41.072C194.202 42.096 193.37 43.216 192.314 44.432C191.258 45.648 190.154 46.672 189.002 47.504C185.706 49.872 182.506 51.056 179.402 51.056C178.122 51.056 177.066 50.656 176.234 49.856C175.402 49.056 174.986 48.048 174.986 46.832C174.986 43.76 176.746 40.976 180.266 38.48C183.818 35.952 188.73 33.936 195.002 32.432C197.37 25.52 200.698 20.592 204.986 17.648C200.346 17.712 196.522 18.496 193.514 20C190.506 21.504 189.002 23.424 189.002 25.76C189.002 26.496 189.114 27.136 189.338 27.68C189.562 28.192 190.09 29.008 190.922 30.128L189.29 31.664C187.882 30.768 186.81 29.68 186.074 28.4C185.338 27.12 184.97 25.888 184.97 24.704C184.97 22.72 186.026 20.896 188.138 19.232C190.25 17.536 192.874 16.24 196.01 15.344C199.146 14.416 202.33 13.952 205.562 13.952C207.194 13.952 208.314 14.08 208.922 14.336C209.562 14.56 209.882 15.008 209.882 15.68C209.882 16.32 209.418 16.928 208.49 17.504C204.49 20 201.274 24.736 198.842 31.712C200.73 31.392 203.658 31.04 207.626 30.656C209.162 26.176 210.394 22.864 211.322 20.72C212.282 18.544 213.61 16.112 215.306 13.424ZM183.242 47.744C184.426 47.744 185.802 47.216 187.37 46.16C188.97 45.136 190.298 43.792 191.354 42.128C192.442 40.432 193.37 38.112 194.138 35.168C189.882 35.872 186.442 37.12 183.818 38.912C181.226 40.672 179.93 42.672 179.93 44.912C179.93 45.808 180.186 46.496 180.698 46.976C181.242 47.488 182.09 47.744 183.242 47.744ZM229.476 29.744C230.308 31.12 230.724 32.64 230.724 34.304C230.724 36.896 229.828 39.216 228.036 41.264C226.244 43.28 224.132 44.288 221.7 44.288C219.844 44.288 218.388 43.76 217.332 42.704C216.308 41.616 215.796 40.128 215.796 38.24C215.796 35.2 216.98 32.48 219.348 30.08C221.716 27.648 224.372 26.432 227.316 26.432C227.86 26.432 228.244 26.448 228.468 26.48L228.612 28.064C226.052 28.064 223.924 28.8 222.228 30.272C220.532 31.744 219.684 33.632 219.684 35.936C219.684 37.312 220.02 38.432 220.692 39.296C221.364 40.128 222.34 40.544 223.62 40.544C224.932 40.544 225.972 39.968 226.74 38.816C227.508 37.664 227.892 36.32 227.892 34.784C227.892 33.216 227.588 31.792 226.98 30.512L229.476 29.744ZM260.582 37.76L261.59 38.72C259.766 41.984 257.67 43.616 255.302 43.616C254.342 43.616 253.59 43.36 253.046 42.848C252.534 42.304 252.278 41.6 252.278 40.736C252.278 39.84 252.806 38.32 253.862 36.176C254.918 34.032 255.478 32.4 255.542 31.28C255.574 30.768 255.414 30.352 255.062 30.032C254.742 29.712 254.294 29.552 253.718 29.552C253.142 29.552 252.55 29.696 251.942 29.984C251.366 30.24 250.79 30.672 250.214 31.28C249.67 31.888 249.158 32.48 248.678 33.056C248.23 33.632 247.718 34.448 247.142 35.504C246.598 36.56 246.134 37.44 245.75 38.144C245.078 39.456 244.118 41.424 242.87 44.048L239.99 43.04C239.99 42.944 240.518 41.136 241.574 37.616C242.63 34.096 243.158 32 243.158 31.328C243.158 30.656 242.998 30.176 242.678 29.888C242.358 29.568 241.958 29.408 241.478 29.408C240.038 29.408 238.038 31.2 235.478 34.784C232.95 38.368 231.334 41.424 230.63 43.952L227.894 43.04C228.054 41.344 228.806 38.304 230.15 33.92C231.494 29.504 232.63 26.496 233.558 24.896L235.718 25.664C234.726 27.872 234.038 29.744 233.654 31.28C233.27 32.784 232.934 34.4 232.646 36.128C235.398 32.192 237.702 29.44 239.558 27.872C241.414 26.272 243.094 25.472 244.598 25.472C246.23 25.472 247.046 26.288 247.046 27.92C247.046 28.56 246.758 29.824 246.182 31.712C245.638 33.6 245.206 35.088 244.886 36.176C249.302 29.072 253.254 25.52 256.742 25.52C257.606 25.52 258.294 25.792 258.806 26.336C259.318 26.848 259.574 27.632 259.574 28.688C259.574 29.712 258.966 31.424 257.75 33.824C256.566 36.224 255.974 37.744 255.974 38.384C255.974 38.992 256.102 39.44 256.358 39.728C256.614 40.016 256.934 40.16 257.318 40.16C258.15 40.16 259.238 39.36 260.582 37.76ZM272.567 38.336L273.671 39.2C272.679 40.576 271.319 41.728 269.591 42.656C267.863 43.552 266.183 44 264.551 44C262.919 44 261.607 43.52 260.615 42.56C259.623 41.6 259.127 40.336 259.127 38.768C259.127 35.824 260.679 32.928 263.783 30.08C266.919 27.232 270.087 25.808 273.287 25.808C275.399 25.808 276.455 26.64 276.455 28.304C276.455 30.032 275.335 31.776 273.095 33.536C270.887 35.296 267.767 36.896 263.735 38.336C264.023 39.072 264.471 39.648 265.079 40.064C265.687 40.48 266.311 40.688 266.951 40.688C268.327 40.688 270.199 39.904 272.567 38.336ZM263.495 36.896C266.087 36 268.311 34.88 270.167 33.536C272.023 32.192 272.951 30.96 272.951 29.84C272.951 29.424 272.791 29.056 272.471 28.736C272.151 28.416 271.783 28.256 271.367 28.256C269.863 28.256 268.231 29.2 266.471 31.088C264.743 32.944 263.751 34.88 263.495 36.896Z" fill="black"/>
<path d="M54.4999 15.236C55.5691 15.8419 56.457 16.7208 57.0722 17.7822C57.6873 18.8436 58.0076 20.0492 57.9999 21.2749V43.8557C57.9999 46.3636 56.6216 48.6763 54.3972 49.8946L48.4124 53.6671L43.0625 57.0393L33.3973 63.1318C32.3561 63.7014 31.1876 64 29.9999 64C28.8122 64 27.6437 63.7014 26.6026 63.1318L16.9373 57.0393L11.8256 53.8172L5.60266 49.8946C4.51429 49.3019 3.60571 48.4288 2.97194 47.3664C2.33818 46.3041 2.00249 45.0915 2 43.8557V21.2718C2 18.7638 3.37822 16.4543 5.60266 15.236L26.6026 2.89774C27.6745 2.30885 28.8786 2 30.1026 2C31.3266 2 32.5307 2.30885 33.6026 2.89774L54.6025 15.236H54.4999Z" fill="#970066"/>
<path d="M11.392 33.087H6.0503L30.1026 11.8266L54.1257 33.087H48.784" fill="#970066"/>
<path d="M48.4124 53.6671C48.6556 53.0517 48.784 52.3908 48.784 51.7166L48.784 33.087H54.1257L30.1026 11.8266L6.0503 33.087H11.392V51.7166C11.392 52.4459 11.5422 53.1598 11.8256 53.8172M48.4124 53.6671L54.3972 49.8946C56.6216 48.6763 57.9999 46.3636 57.9999 43.8557V21.2749C58.0076 20.0492 57.6873 18.8436 57.0722 17.7822C56.457 16.7208 55.5691 15.8419 54.4999 15.236H54.6025L33.6026 2.89774C32.5307 2.30885 31.3266 2 30.1026 2C28.8786 2 27.6745 2.30885 26.6026 2.89774L5.60266 15.236C3.37822 16.4543 2 18.7638 2 21.2718V43.8557C2.00249 45.0915 2.33818 46.3041 2.97194 47.3664C3.60571 48.4288 4.51429 49.3019 5.60266 49.8946L11.8256 53.8172M48.4124 53.6671L43.0625 57.0393M43.0625 57.0393L33.3973 63.1318C32.3561 63.7014 31.1876 64 29.9999 64C28.8122 64 27.6437 63.7014 26.6026 63.1318L16.9373 57.0393M43.0625 57.0393H38.1005M11.8256 53.8172L16.9373 57.0393M16.9373 57.0393H22.0754M38.1005 57.0393V41.0711C38.1005 39.6594 37.5378 38.3056 36.536 37.3074C35.5342 36.3092 34.1755 35.7484 32.7588 35.7484H27.4171C26.0004 35.7484 24.6417 36.3092 23.64 37.3074C22.6382 38.3056 22.0754 39.6594 22.0754 41.0711V57.0393M38.1005 57.0393H22.0754" stroke="white" stroke-width="2.5" stroke-linecap="round" stroke-linejoin="round"/>
</svg>
